<?xml version="1.0" standalone="no"?>
<!DOCTYPE svg PUBLIC "-//W3C//DTD SVG 20010904//EN"
 "http://www.w3.org/TR/2001/REC-SVG-20010904/DTD/svg10.dtd">
<svg version="1.0" xmlns="http://www.w3.org/2000/svg"
 width="512.000000pt" height="512.000000pt" viewBox="0 0 512.000000 512.000000"
 preserveAspectRatio="xMidYMid meet">
<metadata>
Created by potrace 1.15, written by Peter Selinger 2001-2017
</metadata>
<g transform="translate(0.000000,512.000000) scale(0.100000,-0.100000)"
fill="#000000" stroke="none">
<path d="M203 4958 c-174 -172 -196 -198 -191 -231 3 -19 32 5 192 163 103
102 192 193 197 203 8 14 5 17 -17 17 -21 0 -60 -33 -181 -152z"/>
<path d="M303 4858 c-140 -139 -264 -265 -275 -281 -10 -15 -18 -37 -16 -50 3
-18 49 23 292 263 158 157 292 293 297 303 8 14 5 17 -17 17 -22 0 -75 -47
-281 -252z"/>
<path d="M402 4758 c-194 -194 -362 -365 -373 -381 -11 -15 -19 -37 -17 -50 4
-18 67 40 392 363 213 212 392 393 397 403 8 14 5 17 -18 17 -22 0 -89 -62
-381 -352z"/>
<path d="M502 4658 c-249 -249 -462 -465 -473 -481 -11 -15 -19 -37 -17 -50 4
-18 84 57 492 463 268 267 492 493 497 503 8 14 5 17 -18 17 -22 0 -104 -76
-481 -452z"/>
<path d="M602 4558 c-304 -304 -562 -565 -573 -581 -11 -15 -19 -37 -17 -50 4
-18 101 75 592 563 323 322 592 593 597 603 8 14 5 17 -18 17 -23 0 -118 -91
-581 -552z"/>
<path d="M702 4458 c-359 -359 -662 -665 -673 -681 -11 -15 -19 -37 -17 -50 4
-18 118 92 692 663 378 377 692 693 697 703 8 14 5 17 -18 17 -23 0 -133 -106
-681 -652z"/>
<path d="M802 4358 c-414 -414 -762 -765 -773 -781 -11 -15 -19 -37 -17 -50 3
-19 46 19 272 243 221 218 261 253 224 200 -25 -36 -71 -110 -103 -165 -50
-86 -82 -125 -226 -271 -133 -134 -169 -177 -169 -198 0 -14 3 -26 7 -26 3 0
64 57 136 128 115 113 127 123 112 87 -9 -22 -26 -67 -38 -100 -17 -50 -37
-77 -119 -162 -71 -75 -98 -109 -98 -128 0 -14 3 -25 6 -25 3 0 39 32 79 71
l73 71 -21 -84 c-18 -76 -25 -89 -79 -146 -38 -41 -58 -71 -58 -87 0 -14 2
-25 5 -25 3 0 26 19 52 43 33 30 44 36 40 22 -3 -11 -9 -45 -13 -75 -5 -44
-14 -63 -45 -99 -22 -25 -39 -54 -39 -68 0 -26 9 -24 48 11 l24 21 -7 -70 c-6
-56 -14 -77 -37 -106 -18 -22 -28 -46 -26 -59 l3 -22 27 22 28 21 0 -61 c0
-53 -4 -66 -31 -100 -19 -23 -29 -47 -27 -60 l3 -23 31 26 31 27 7 -56 c6 -54
5 -57 -34 -101 -22 -26 -40 -56 -40 -69 0 -13 2 -24 5 -24 3 0 22 16 44 35
l38 35 11 -52 10 -52 -54 -59 c-35 -37 -54 -67 -54 -83 0 -13 3 -24 6 -24 3 0
29 23 59 51 l54 51 10 -39 c6 -21 11 -44 11 -52 0 -7 -31 -47 -70 -87 -48 -51
-70 -82 -70 -99 0 -14 3 -25 6 -25 3 0 39 32 79 71 40 39 75 67 78 62 2 -4 10
-25 17 -46 l12 -38 -96 -99 c-70 -73 -96 -106 -96 -124 0 -15 3 -26 6 -26 4 0
51 43 105 96 l98 96 15 -37 c9 -21 16 -42 16 -48 0 -6 -54 -65 -120 -133 -92
-93 -120 -128 -120 -148 0 -38 15 -27 150 108 l115 116 21 -43 22 -42 -154
-156 c-121 -123 -154 -162 -154 -183 0 -22 3 -25 18 -17 9 5 82 75 162 155 80
80 147 146 151 146 3 0 14 -18 24 -40 l18 -41 -186 -188 c-148 -149 -187 -194
-187 -215 0 -14 3 -26 7 -26 4 0 94 86 200 192 106 105 194 190 197 187 2 -2
13 -20 25 -39 l21 -35 -225 -226 c-180 -181 -225 -231 -225 -252 0 -15 3 -27
7 -27 4 0 111 104 239 231 l232 231 26 -38 26 -38 -265 -266 c-214 -215 -265
-272 -265 -293 0 -15 3 -27 7 -27 4 0 130 122 280 272 l273 272 29 -34 29 -35
-309 -311 c-251 -252 -309 -315 -309 -337 0 -15 3 -27 7 -27 4 0 150 143 325
317 l318 317 29 -34 30 -35 -355 -356 c-290 -291 -354 -360 -354 -382 0 -15 3
-27 7 -27 4 0 172 164 373 365 l366 366 31 -34 31 -34 -370 -369 c-203 -203
-374 -377 -379 -387 -8 -14 -5 -17 18 -17 22 0 91 64 398 370 l371 370 32 -33
32 -33 -321 -319 c-176 -176 -325 -328 -330 -337 -8 -15 -5 -18 17 -18 23 0
85 57 350 321 l322 321 37 -27 36 -28 -285 -287 c-157 -157 -286 -289 -286
-293 0 -4 12 -7 27 -7 21 0 79 53 304 276 l277 277 36 -23 c20 -12 36 -25 36
-28 0 -4 -104 -111 -231 -237 -126 -127 -235 -238 -240 -247 -8 -15 -5 -18 17
-18 22 0 72 45 264 236 l237 235 37 -21 c20 -12 36 -25 36 -29 0 -3 -86 -92
-191 -196 -104 -105 -195 -198 -200 -207 -8 -15 -5 -18 17 -18 22 0 66 39 223
195 109 107 201 195 205 195 5 0 24 -10 43 -21 l35 -22 -166 -166 c-91 -92
-166 -170 -166 -174 0 -4 12 -7 26 -7 21 0 62 35 190 162 l164 161 40 -18 c22
-10 40 -21 40 -24 0 -4 -54 -60 -121 -126 -140 -140 -151 -155 -113 -155 20 0
56 30 158 130 l132 130 47 -18 46 -18 -95 -94 c-114 -114 -125 -130 -89 -130
20 0 53 26 130 101 l105 102 45 -13 c25 -7 45 -16 45 -19 0 -4 -30 -36 -66
-71 -83 -83 -94 -100 -59 -100 18 0 48 22 104 75 81 77 92 82 149 62 l33 -12
-46 -45 c-26 -25 -51 -53 -56 -62 -8 -15 -6 -18 15 -18 16 0 46 19 85 56 l61
56 50 -7 c27 -4 50 -10 50 -14 0 -4 -12 -18 -26 -32 -72 -67 -27 -85 49 -19
46 40 66 46 126 34 l31 -6 -27 -32 -26 -31 23 -3 c13 -2 37 8 60 27 34 27 47
31 100 31 l61 0 -21 -27 -22 -28 22 -3 c13 -2 37 8 60 27 34 27 47 31 101 31
58 0 61 -1 47 -17 -46 -54 -3 -61 58 -10 33 29 49 35 107 40 l69 6 -31 -35
c-37 -42 -38 -44 -7 -44 14 0 45 19 77 47 46 42 62 50 131 64 l78 16 -55 -58
c-30 -32 -55 -60 -55 -63 0 -3 11 -6 25 -6 18 0 49 23 106 77 76 73 87 80 176
109 l95 32 -101 -102 c-56 -57 -101 -106 -101 -110 0 -3 12 -6 26 -6 20 0 58
31 163 134 130 127 142 136 266 200 l129 66 -192 -193 c-106 -106 -192 -196
-192 -200 0 -4 12 -7 27 -7 21 0 81 54 312 283 157 156 322 312 365 348 103
82 232 211 325 324 41 50 200 216 353 371 225 227 278 286 278 307 0 15 -3 27
-7 27 -4 0 -92 -84 -196 -187 l-188 -188 67 130 c63 124 73 136 195 261 99
101 129 138 129 158 0 14 -3 26 -6 26 -4 0 -51 -44 -105 -97 l-99 -97 32 95
c29 87 37 100 104 171 52 54 74 85 74 103 0 14 -3 25 -6 25 -3 0 -30 -24 -61
-52 -37 -35 -54 -46 -50 -33 3 11 11 47 18 80 10 47 22 71 56 109 26 29 43 58
43 73 0 27 -9 25 -48 -11 l-24 -21 7 70 c6 56 14 77 36 105 16 19 29 45 29 58
0 24 -1 24 -25 8 l-25 -16 0 60 c0 50 5 67 25 94 14 18 25 43 25 56 0 21 -1
22 -24 7 l-24 -16 -4 57 c-3 51 0 61 25 93 17 22 27 46 25 59 l-3 22 -27 -21
c-25 -20 -27 -20 -32 -4 -17 58 -10 90 27 133 39 46 52 99 20 81 -10 -5 -29
-21 -43 -36 l-25 -27 -11 54 -10 53 53 58 c34 37 53 67 53 83 0 13 -3 24 -6
24 -3 0 -30 -23 -59 -51 -37 -35 -56 -47 -59 -38 -2 8 -9 29 -15 48 -11 33
-10 35 64 112 53 56 75 86 75 104 0 35 -17 24 -100 -59 l-65 -66 -16 47 -16
48 98 102 c73 75 99 108 99 127 0 14 -3 26 -6 26 -4 0 -53 -45 -109 -100
l-102 -101 -18 46 -17 46 126 129 c97 98 126 134 126 154 0 38 -15 27 -155
-113 l-120 -121 -21 43 -22 42 159 161 c124 126 159 167 159 188 0 14 -3 26
-7 26 -4 0 -80 -73 -170 -162 -89 -89 -164 -160 -166 -157 -2 2 -13 20 -25 39
l-21 35 194 196 c156 157 195 201 195 223 0 22 -3 25 -17 17 -10 -5 -103 -95
-207 -200 l-190 -190 -23 34 c-13 19 -23 37 -23 42 0 4 104 111 230 238 186
187 230 237 230 259 0 22 -3 25 -17 17 -10 -5 -121 -113 -247 -240 l-229 -229
-27 36 -28 37 274 276 c223 225 274 281 274 303 0 22 -3 25 -17 17 -10 -5
-139 -132 -288 -280 -148 -149 -272 -271 -275 -271 -3 0 -16 16 -29 36 l-24
35 316 318 c258 258 317 322 317 344 0 15 -3 27 -7 27 -4 0 -155 -147 -335
-327 l-328 -327 -29 34 -30 35 365 366 c298 299 364 370 364 392 0 15 -3 27
-7 27 -4 0 -176 -169 -383 -375 l-376 -375 -32 33 -32 33 351 349 c193 193
355 358 360 368 8 14 5 17 -18 17 -22 0 -89 -62 -379 -351 l-352 -351 -33 31
-34 30 313 313 c171 173 312 317 312 321 0 4 -12 7 -27 7 -22 0 -84 -57 -332
-304 l-306 -305 -37 28 -37 27 260 260 c143 142 265 267 270 277 8 14 5 17
-17 17 -22 0 -76 -49 -290 -261 l-262 -262 -34 23 c-18 13 -35 25 -37 27 -3 2
97 106 222 231 125 126 227 231 227 235 0 4 -12 7 -27 7 -21 0 -71 -44 -249
-221 l-222 -221 -41 24 -40 24 180 180 c99 98 185 187 190 197 8 14 5 17 -17
17 -21 0 -65 -38 -213 -184 l-186 -184 -37 20 c-21 11 -38 23 -38 27 0 3 63
69 141 146 77 77 145 148 150 158 8 14 5 17 -17 17 -21 0 -59 -32 -178 -149
l-151 -150 -44 20 -44 20 121 123 c67 67 122 126 122 129 0 4 -12 7 -26 7 -20
0 -55 -29 -147 -119 l-122 -119 -40 16 c-22 8 -42 17 -44 19 -3 2 37 45 87 97
51 51 92 96 92 100 0 3 -11 6 -25 6 -19 0 -52 -25 -120 -91 l-95 -92 -45 13
c-25 7 -45 16 -45 19 0 4 25 31 56 61 73 72 83 90 49 90 -17 0 -47 -21 -97
-68 l-73 -68 -45 10 c-25 5 -47 11 -49 12 -2 2 17 26 42 53 26 28 47 53 47 56
0 3 -11 5 -24 5 -15 0 -45 -19 -79 -50 -45 -41 -61 -50 -81 -45 -14 3 -38 7
-52 10 l-25 6 30 35 c37 42 38 44 8 44 -13 0 -42 -16 -64 -35 -41 -35 -63 -40
-122 -29 l-31 6 21 27 21 26 -22 3 c-14 2 -37 -9 -62 -28 -37 -30 -43 -32 -94
-25 l-54 6 16 25 c16 23 15 24 -8 24 -13 0 -39 -13 -58 -30 -31 -26 -43 -29
-99 -30 -60 0 -63 1 -49 18 47 54 3 60 -58 8 -23 -20 -56 -37 -77 -40 -20 -3
-54 -9 -74 -12 l-37 -6 37 41 c20 23 37 43 37 46 0 3 -11 5 -24 5 -16 0 -46
-19 -83 -54 -49 -45 -70 -57 -123 -71 -36 -9 -74 -19 -85 -22 -12 -3 7 23 48
65 37 38 67 73 67 76 0 3 -11 6 -25 6 -19 0 -52 -25 -121 -92 -85 -82 -104
-96 -177 -124 -45 -17 -91 -35 -102 -39 -11 -4 35 48 103 117 67 69 122 128
122 131 0 4 -12 7 -26 7 -21 0 -64 -37 -198 -168 -131 -129 -188 -178 -241
-207 -38 -21 -110 -65 -160 -98 l-90 -59 258 259 c141 142 257 262 257 266 0
4 -12 7 -27 7 -23 0 -152 -125 -781 -752z m2626 -1445 c-3 -718 -4 -729 -26
-808 -12 -44 -43 -123 -69 -175 -39 -79 -62 -110 -138 -186 -125 -126 -238
-187 -437 -234 -132 -32 -386 -39 -530 -15 -119 20 -277 69 -368 115 -73 37
-170 100 -170 110 0 8 129 180 135 180 2 0 37 -21 76 -47 146 -94 318 -143
498 -143 295 1 476 136 562 420 23 74 23 85 27 678 l3 602 -350 0 -351 0 0
115 0 115 570 0 571 0 -3 -727z"/>
<path d="M4396 750 c-394 -393 -722 -723 -727 -732 -8 -15 -5 -18 18 -18 23 0
137 110 711 683 376 375 692 694 703 710 11 15 19 37 17 50 -4 18 -124 -97
-722 -693z"/>
<path d="M4496 650 c-339 -338 -622 -623 -627 -632 -8 -15 -5 -18 18 -18 23 0
123 95 611 583 321 320 592 594 603 610 11 15 19 37 17 50 -4 18 -106 -80
-622 -593z"/>
<path d="M4596 550 c-284 -283 -522 -523 -527 -533 -8 -14 -5 -17 18 -17 23 0
108 81 511 483 266 265 492 494 503 510 11 15 19 37 17 50 -4 18 -89 -62 -522
-493z"/>
<path d="M4696 450 c-229 -228 -422 -423 -427 -432 -8 -15 -5 -18 18 -18 22 0
93 66 411 383 211 210 392 394 403 410 11 15 19 37 17 50 -4 18 -72 -45 -422
-393z"/>
<path d="M4796 350 c-174 -173 -322 -323 -327 -332 -8 -15 -5 -18 17 -18 23 0
80 52 312 282 156 156 293 295 303 311 11 15 19 37 17 50 -4 18 -54 -28 -322
-293z"/>
<path d="M4896 250 c-119 -118 -222 -223 -227 -232 -8 -15 -5 -18 17 -18 21 0
65 37 211 183 205 202 226 227 221 260 -3 19 -37 -11 -222 -193z"/>
<path d="M4996 150 c-136 -133 -149 -150 -111 -150 18 0 49 23 111 82 102 98
127 130 122 161 -3 19 -19 7 -122 -93z"/>
</g>
</svg>
